# ZEHRA KINIK prosedurel low-poly: Kaze Civita Mk6 Tip-R
# 174 vertex, 288 ucgen
mtllib 005.mtl
o car
v 2.0900 0.1915 -0.7820
v 2.0900 0.1915 0.7820
v 2.0900 0.7072 0.7820
v 2.0900 0.7172 0.7585
v 2.0900 0.7172 -0.7585
v 2.0900 0.7072 -0.7820
v 1.8810 0.1546 -0.8500
v 1.8810 0.1546 0.8500
v 1.8810 0.8160 0.8500
v 1.8810 0.8260 0.8245
v 1.8810 0.8260 -0.8245
v 1.8810 0.8160 -0.8500
v 0.9196 0.1423 -0.8500
v 0.9196 0.1423 0.8500
v 0.9196 0.8976 0.8500
v 0.9196 0.9076 0.8245
v 0.9196 0.9076 -0.8245
v 0.9196 0.8976 -0.8500
v 0.4180 0.1423 -0.8500
v 0.4180 0.1423 0.8500
v 0.4180 0.9248 0.8500
v 0.4180 1.3328 0.6800
v 0.4180 1.3328 -0.6800
v 0.4180 0.9248 -0.8500
v -0.5016 0.1423 -0.8500
v -0.5016 0.1423 0.8500
v -0.5016 0.9248 0.8500
v -0.5016 1.3600 0.6970
v -0.5016 1.3600 -0.6970
v -0.5016 0.9248 -0.8500
v -1.6720 0.1546 -0.8500
v -1.6720 0.1546 0.8500
v -1.6720 0.9248 0.8500
v -1.6720 1.2784 0.6800
v -1.6720 1.2784 -0.6800
v -1.6720 0.9248 -0.8500
v -2.0900 0.1792 -0.8160
v -2.0900 0.1792 0.8160
v -2.0900 0.8704 0.8160
v -2.0900 0.8976 0.0000
v -2.0900 0.8976 -0.0000
v -2.0900 0.8704 -0.8160
v 2.0840 0.5756 0.6300
v 2.0940 0.5756 0.6300
v 2.0940 0.5756 0.3900
v 2.0840 0.5756 0.3900
v 2.0840 0.6556 0.6300
v 2.0940 0.6556 0.6300
v 2.0940 0.6556 0.3900
v 2.0840 0.6556 0.3900
v -2.0940 0.5856 0.6740
v -2.0840 0.5856 0.6740
v -2.0840 0.5856 0.4140
v -2.0940 0.5856 0.4140
v -2.0940 0.6656 0.6740
v -2.0840 0.6656 0.6740
v -2.0840 0.6656 0.4140
v -2.0940 0.6656 0.4140
v 2.0840 0.5756 -0.3900
v 2.0940 0.5756 -0.3900
v 2.0940 0.5756 -0.6300
v 2.0840 0.5756 -0.6300
v 2.0840 0.6556 -0.3900
v 2.0940 0.6556 -0.3900
v 2.0940 0.6556 -0.6300
v 2.0840 0.6556 -0.6300
v -2.0940 0.5856 -0.4140
v -2.0840 0.5856 -0.4140
v -2.0840 0.5856 -0.6740
v -2.0940 0.5856 -0.6740
v -2.0940 0.6656 -0.4140
v -2.0840 0.6656 -0.4140
v -2.0840 0.6656 -0.6740
v -2.0940 0.6656 -0.6740
v 1.5340 0.4286 0.8650
v 1.5340 0.4286 0.6550
v 1.4252 0.3836 0.8670
v 1.3662 0.5964 0.8650
v 1.3662 0.5964 0.6550
v 1.3212 0.4876 0.8670
v 1.1290 0.5964 0.8650
v 1.1290 0.5964 0.6550
v 1.1740 0.4876 0.8670
v 0.9612 0.4286 0.8650
v 0.9612 0.4286 0.6550
v 1.0700 0.3836 0.8670
v 0.9612 0.1914 0.8650
v 0.9612 0.1914 0.6550
v 1.0700 0.2364 0.8670
v 1.1290 0.0236 0.8650
v 1.1290 0.0236 0.6550
v 1.1740 0.1324 0.8670
v 1.3662 0.0236 0.8650
v 1.3662 0.0236 0.6550
v 1.3212 0.1324 0.8670
v 1.5340 0.1914 0.8650
v 1.5340 0.1914 0.6550
v 1.4252 0.2364 0.8670
v 1.2476 0.3100 0.8690
v 1.5340 0.4286 -0.6550
v 1.5340 0.4286 -0.8650
v 1.4252 0.3836 -0.8670
v 1.3662 0.5964 -0.6550
v 1.3662 0.5964 -0.8650
v 1.3212 0.4876 -0.8670
v 1.1290 0.5964 -0.6550
v 1.1290 0.5964 -0.8650
v 1.1740 0.4876 -0.8670
v 0.9612 0.4286 -0.6550
v 0.9612 0.4286 -0.8650
v 1.0700 0.3836 -0.8670
v 0.9612 0.1914 -0.6550
v 0.9612 0.1914 -0.8650
v 1.0700 0.2364 -0.8670
v 1.1290 0.0236 -0.6550
v 1.1290 0.0236 -0.8650
v 1.1740 0.1324 -0.8670
v 1.3662 0.0236 -0.6550
v 1.3662 0.0236 -0.8650
v 1.3212 0.1324 -0.8670
v 1.5340 0.1914 -0.6550
v 1.5340 0.1914 -0.8650
v 1.4252 0.2364 -0.8670
v 1.2476 0.3100 -0.8690
v -1.0860 0.4286 0.8650
v -1.0860 0.4286 0.6550
v -1.1948 0.3836 0.8670
v -1.2538 0.5964 0.8650
v -1.2538 0.5964 0.6550
v -1.2988 0.4876 0.8670
v -1.4910 0.5964 0.8650
v -1.4910 0.5964 0.6550
v -1.4460 0.4876 0.8670
v -1.6588 0.4286 0.8650
v -1.6588 0.4286 0.6550
v -1.5500 0.3836 0.8670
v -1.6588 0.1914 0.8650
v -1.6588 0.1914 0.6550
v -1.5500 0.2364 0.8670
v -1.4910 0.0236 0.8650
v -1.4910 0.0236 0.6550
v -1.4460 0.1324 0.8670
v -1.2538 0.0236 0.8650
v -1.2538 0.0236 0.6550
v -1.2988 0.1324 0.8670
v -1.0860 0.1914 0.8650
v -1.0860 0.1914 0.6550
v -1.1948 0.2364 0.8670
v -1.3724 0.3100 0.8690
v -1.0860 0.4286 -0.6550
v -1.0860 0.4286 -0.8650
v -1.1948 0.3836 -0.8670
v -1.2538 0.5964 -0.6550
v -1.2538 0.5964 -0.8650
v -1.2988 0.4876 -0.8670
v -1.4910 0.5964 -0.6550
v -1.4910 0.5964 -0.8650
v -1.4460 0.4876 -0.8670
v -1.6588 0.4286 -0.6550
v -1.6588 0.4286 -0.8650
v -1.5500 0.3836 -0.8670
v -1.6588 0.1914 -0.6550
v -1.6588 0.1914 -0.8650
v -1.5500 0.2364 -0.8670
v -1.4910 0.0236 -0.6550
v -1.4910 0.0236 -0.8650
v -1.4460 0.1324 -0.8670
v -1.2538 0.0236 -0.6550
v -1.2538 0.0236 -0.8650
v -1.2988 0.1324 -0.8670
v -1.0860 0.1914 -0.6550
v -1.0860 0.1914 -0.8650
v -1.1948 0.2364 -0.8670
v -1.3724 0.3100 -0.8690
usemtl paint
f 2 8 9
f 2 9 3
f 6 12 7
f 6 7 1
f 3 9 10
f 3 10 4
f 5 11 12
f 5 12 6
f 4 10 11
f 4 11 5
f 8 14 15
f 8 15 9
f 12 18 13
f 12 13 7
f 9 15 16
f 9 16 10
f 11 17 18
f 11 18 12
f 10 16 17
f 10 17 11
f 14 20 21
f 14 21 15
f 18 24 19
f 18 19 13
f 16 22 23
f 16 23 17
f 20 26 27
f 20 27 21
f 24 30 25
f 24 25 19
f 22 28 29
f 22 29 23
f 26 32 33
f 26 33 27
f 30 36 31
f 30 31 25
f 28 34 35
f 28 35 29
f 32 38 39
f 32 39 33
f 36 42 37
f 36 37 31
f 34 40 41
f 34 41 35
f 1 3 2
f 1 4 3
f 1 5 4
f 1 6 5
f 37 38 39
f 37 39 40
f 37 40 41
f 37 41 42
usemtl glass
f 15 21 22
f 15 22 16
f 17 23 24
f 17 24 18
f 21 27 28
f 21 28 22
f 23 29 30
f 23 30 24
f 27 33 34
f 27 34 28
f 29 35 36
f 29 36 30
f 33 39 40
f 33 40 34
f 35 41 42
f 35 42 36
usemtl tire
f 75 78 79
f 75 79 76
f 78 81 82
f 78 82 79
f 81 84 85
f 81 85 82
f 84 87 88
f 84 88 85
f 87 90 91
f 87 91 88
f 90 93 94
f 90 94 91
f 93 96 97
f 93 97 94
f 96 75 76
f 96 76 97
f 75 78 80
f 75 80 77
f 78 81 83
f 78 83 80
f 81 84 86
f 81 86 83
f 84 87 89
f 84 89 86
f 87 90 92
f 87 92 89
f 90 93 95
f 90 95 92
f 93 96 98
f 93 98 95
f 96 75 77
f 96 77 98
f 100 103 104
f 100 104 101
f 103 106 107
f 103 107 104
f 106 109 110
f 106 110 107
f 109 112 113
f 109 113 110
f 112 115 116
f 112 116 113
f 115 118 119
f 115 119 116
f 118 121 122
f 118 122 119
f 121 100 101
f 121 101 122
f 101 104 105
f 101 105 102
f 104 107 108
f 104 108 105
f 107 110 111
f 107 111 108
f 110 113 114
f 110 114 111
f 113 116 117
f 113 117 114
f 116 119 120
f 116 120 117
f 119 122 123
f 119 123 120
f 122 101 102
f 122 102 123
f 125 128 129
f 125 129 126
f 128 131 132
f 128 132 129
f 131 134 135
f 131 135 132
f 134 137 138
f 134 138 135
f 137 140 141
f 137 141 138
f 140 143 144
f 140 144 141
f 143 146 147
f 143 147 144
f 146 125 126
f 146 126 147
f 125 128 130
f 125 130 127
f 128 131 133
f 128 133 130
f 131 134 136
f 131 136 133
f 134 137 139
f 134 139 136
f 137 140 142
f 137 142 139
f 140 143 145
f 140 145 142
f 143 146 148
f 143 148 145
f 146 125 127
f 146 127 148
f 150 153 154
f 150 154 151
f 153 156 157
f 153 157 154
f 156 159 160
f 156 160 157
f 159 162 163
f 159 163 160
f 162 165 166
f 162 166 163
f 165 168 169
f 165 169 166
f 168 171 172
f 168 172 169
f 171 150 151
f 171 151 172
f 151 154 155
f 151 155 152
f 154 157 158
f 154 158 155
f 157 160 161
f 157 161 158
f 160 163 164
f 160 164 161
f 163 166 167
f 163 167 164
f 166 169 170
f 166 170 167
f 169 172 173
f 169 173 170
f 172 151 152
f 172 152 173
usemtl rim
f 99 77 80
f 99 80 83
f 99 83 86
f 99 86 89
f 99 89 92
f 99 92 95
f 99 95 98
f 99 98 77
f 124 102 105
f 124 105 108
f 124 108 111
f 124 111 114
f 124 114 117
f 124 117 120
f 124 120 123
f 124 123 102
f 149 127 130
f 149 130 133
f 149 133 136
f 149 136 139
f 149 139 142
f 149 142 145
f 149 145 148
f 149 148 127
f 174 152 155
f 174 155 158
f 174 158 161
f 174 161 164
f 174 164 167
f 174 167 170
f 174 170 173
f 174 173 152
usemtl light
f 43 46 45
f 43 45 44
f 47 48 49
f 47 49 50
f 43 44 48
f 43 48 47
f 45 46 50
f 45 50 49
f 44 45 49
f 44 49 48
f 46 43 47
f 46 47 50
f 59 62 61
f 59 61 60
f 63 64 65
f 63 65 66
f 59 60 64
f 59 64 63
f 61 62 66
f 61 66 65
f 60 61 65
f 60 65 64
f 62 59 63
f 62 63 66
usemtl tail
f 51 54 53
f 51 53 52
f 55 56 57
f 55 57 58
f 51 52 56
f 51 56 55
f 53 54 58
f 53 58 57
f 52 53 57
f 52 57 56
f 54 51 55
f 54 55 58
f 67 70 69
f 67 69 68
f 71 72 73
f 71 73 74
f 67 68 72
f 67 72 71
f 69 70 74
f 69 74 73
f 68 69 73
f 68 73 72
f 70 67 71
f 70 71 74
usemtl trim
f 1 7 8
f 1 8 2
f 7 13 14
f 7 14 8
f 13 19 20
f 13 20 14
f 19 25 26
f 19 26 20
f 25 31 32
f 25 32 26
f 31 37 38
f 31 38 32
