# ZEHRA KINIK prosedurel low-poly: Cavallo Trecento 355
# 198 vertex, 324 ucgen
mtllib 186.mtl
o car
v 2.1250 0.1508 -0.8550
v 2.1250 0.1508 0.8550
v 2.1250 0.3978 0.8550
v 2.1250 0.4078 0.8293
v 2.1250 0.4078 -0.8293
v 2.1250 0.3978 -0.8550
v 1.7850 0.1300 -0.9500
v 1.7850 0.1300 0.9500
v 1.7850 0.5382 0.9500
v 1.7850 0.5482 0.9215
v 1.7850 0.5482 -0.9215
v 1.7850 0.5382 -0.9500
v 0.8500 0.1196 -0.9500
v 0.8500 0.1196 0.9500
v 0.8500 0.6552 0.9500
v 0.8500 0.6652 0.9215
v 0.8500 0.6652 -0.9215
v 0.8500 0.6552 -0.9500
v 0.4250 0.1196 -0.9500
v 0.4250 0.1196 0.9500
v 0.4250 0.6786 0.9500
v 0.4250 1.1466 0.6840
v 0.4250 1.1466 -0.6840
v 0.4250 0.6786 -0.9500
v -0.3400 0.1196 -0.9500
v -0.3400 0.1196 0.9500
v -0.3400 0.7254 0.9500
v -0.3400 1.1700 0.6650
v -0.3400 1.1700 -0.6650
v -0.3400 0.7254 -0.9500
v -1.2750 0.1300 -0.9500
v -1.2750 0.1300 0.9500
v -1.2750 0.7722 0.9500
v -1.2750 0.8190 0.4750
v -1.2750 0.8190 -0.4750
v -1.2750 0.7722 -0.9500
v -2.1250 0.1612 -0.9310
v -2.1250 0.1612 0.9310
v -2.1250 0.7722 0.9310
v -2.1250 0.7822 0.9031
v -2.1250 0.7822 -0.9031
v -2.1250 0.7722 -0.9310
v 2.1190 0.2776 0.6900
v 2.1290 0.2776 0.6900
v 2.1290 0.2776 0.4500
v 2.1190 0.2776 0.4500
v 2.1190 0.3576 0.6900
v 2.1290 0.3576 0.6900
v 2.1290 0.3576 0.4500
v 2.1190 0.3576 0.4500
v -2.1290 0.2876 0.7380
v -2.1190 0.2876 0.7380
v -2.1190 0.2876 0.4780
v -2.1290 0.2876 0.4780
v -2.1290 0.3676 0.7380
v -2.1190 0.3676 0.7380
v -2.1190 0.3676 0.4780
v -2.1290 0.3676 0.4780
v 2.1190 0.2776 -0.4500
v 2.1290 0.2776 -0.4500
v 2.1290 0.2776 -0.6900
v 2.1190 0.2776 -0.6900
v 2.1190 0.3576 -0.4500
v 2.1290 0.3576 -0.4500
v 2.1290 0.3576 -0.6900
v 2.1190 0.3576 -0.6900
v -2.1290 0.2876 -0.4780
v -2.1190 0.2876 -0.4780
v -2.1190 0.2876 -0.7380
v -2.1290 0.2876 -0.7380
v -2.1290 0.3676 -0.4780
v -2.1190 0.3676 -0.4780
v -2.1190 0.3676 -0.7380
v -2.1290 0.3676 -0.7380
v -2.0500 0.9126 0.8740
v -1.8100 0.9126 0.8740
v -1.8100 0.9126 -0.8740
v -2.0500 0.9126 -0.8740
v -2.0500 0.9426 0.8740
v -1.8100 0.9426 0.8740
v -1.8100 0.9426 -0.8740
v -2.0500 0.9426 -0.8740
v -1.9200 0.7488 0.5900
v -1.8700 0.7488 0.5900
v -1.8700 0.7488 0.5500
v -1.9200 0.7488 0.5500
v -1.9200 0.9126 0.5900
v -1.8700 0.9126 0.5900
v -1.8700 0.9126 0.5500
v -1.9200 0.9126 0.5500
v -1.9200 0.7488 -0.5500
v -1.8700 0.7488 -0.5500
v -1.8700 0.7488 -0.5900
v -1.9200 0.7488 -0.5900
v -1.9200 0.9126 -0.5500
v -1.8700 0.9126 -0.5500
v -1.8700 0.9126 -0.5900
v -1.9200 0.9126 -0.5900
v 1.6471 0.4701 0.9650
v 1.6471 0.4701 0.6850
v 1.5278 0.4207 0.9670
v 1.4631 0.6541 0.9650
v 1.4631 0.6541 0.6850
v 1.4137 0.5348 0.9670
v 1.2029 0.6541 0.9650
v 1.2029 0.6541 0.6850
v 1.2523 0.5348 0.9670
v 1.0189 0.4701 0.9650
v 1.0189 0.4701 0.6850
v 1.1382 0.4207 0.9670
v 1.0189 0.2099 0.9650
v 1.0189 0.2099 0.6850
v 1.1382 0.2593 0.9670
v 1.2029 0.0259 0.9650
v 1.2029 0.0259 0.6850
v 1.2523 0.1452 0.9670
v 1.4631 0.0259 0.9650
v 1.4631 0.0259 0.6850
v 1.4137 0.1452 0.9670
v 1.6471 0.2099 0.9650
v 1.6471 0.2099 0.6850
v 1.5278 0.2593 0.9670
v 1.3330 0.3400 0.9690
v 1.6471 0.4701 -0.6850
v 1.6471 0.4701 -0.9650
v 1.5278 0.4207 -0.9670
v 1.4631 0.6541 -0.6850
v 1.4631 0.6541 -0.9650
v 1.4137 0.5348 -0.9670
v 1.2029 0.6541 -0.6850
v 1.2029 0.6541 -0.9650
v 1.2523 0.5348 -0.9670
v 1.0189 0.4701 -0.6850
v 1.0189 0.4701 -0.9650
v 1.1382 0.4207 -0.9670
v 1.0189 0.2099 -0.6850
v 1.0189 0.2099 -0.9650
v 1.1382 0.2593 -0.9670
v 1.2029 0.0259 -0.6850
v 1.2029 0.0259 -0.9650
v 1.2523 0.1452 -0.9670
v 1.4631 0.0259 -0.6850
v 1.4631 0.0259 -0.9650
v 1.4137 0.1452 -0.9670
v 1.6471 0.2099 -0.6850
v 1.6471 0.2099 -0.9650
v 1.5278 0.2593 -0.9670
v 1.3330 0.3400 -0.9690
v -0.8029 0.4701 0.9650
v -0.8029 0.4701 0.6850
v -0.9222 0.4207 0.9670
v -0.9869 0.6541 0.9650
v -0.9869 0.6541 0.6850
v -1.0363 0.5348 0.9670
v -1.2471 0.6541 0.9650
v -1.2471 0.6541 0.6850
v -1.1977 0.5348 0.9670
v -1.4311 0.4701 0.9650
v -1.4311 0.4701 0.6850
v -1.3118 0.4207 0.9670
v -1.4311 0.2099 0.9650
v -1.4311 0.2099 0.6850
v -1.3118 0.2593 0.9670
v -1.2471 0.0259 0.9650
v -1.2471 0.0259 0.6850
v -1.1977 0.1452 0.9670
v -0.9869 0.0259 0.9650
v -0.9869 0.0259 0.6850
v -1.0363 0.1452 0.9670
v -0.8029 0.2099 0.9650
v -0.8029 0.2099 0.6850
v -0.9222 0.2593 0.9670
v -1.1170 0.3400 0.9690
v -0.8029 0.4701 -0.6850
v -0.8029 0.4701 -0.9650
v -0.9222 0.4207 -0.9670
v -0.9869 0.6541 -0.6850
v -0.9869 0.6541 -0.9650
v -1.0363 0.5348 -0.9670
v -1.2471 0.6541 -0.6850
v -1.2471 0.6541 -0.9650
v -1.1977 0.5348 -0.9670
v -1.4311 0.4701 -0.6850
v -1.4311 0.4701 -0.9650
v -1.3118 0.4207 -0.9670
v -1.4311 0.2099 -0.6850
v -1.4311 0.2099 -0.9650
v -1.3118 0.2593 -0.9670
v -1.2471 0.0259 -0.6850
v -1.2471 0.0259 -0.9650
v -1.1977 0.1452 -0.9670
v -0.9869 0.0259 -0.6850
v -0.9869 0.0259 -0.9650
v -1.0363 0.1452 -0.9670
v -0.8029 0.2099 -0.6850
v -0.8029 0.2099 -0.9650
v -0.9222 0.2593 -0.9670
v -1.1170 0.3400 -0.9690
usemtl paint
f 2 8 9
f 2 9 3
f 6 12 7
f 6 7 1
f 3 9 10
f 3 10 4
f 5 11 12
f 5 12 6
f 4 10 11
f 4 11 5
f 8 14 15
f 8 15 9
f 12 18 13
f 12 13 7
f 9 15 16
f 9 16 10
f 11 17 18
f 11 18 12
f 10 16 17
f 10 17 11
f 14 20 21
f 14 21 15
f 18 24 19
f 18 19 13
f 16 22 23
f 16 23 17
f 20 26 27
f 20 27 21
f 24 30 25
f 24 25 19
f 22 28 29
f 22 29 23
f 26 32 33
f 26 33 27
f 30 36 31
f 30 31 25
f 28 34 35
f 28 35 29
f 32 38 39
f 32 39 33
f 36 42 37
f 36 37 31
f 34 40 41
f 34 41 35
f 1 3 2
f 1 4 3
f 1 5 4
f 1 6 5
f 37 38 39
f 37 39 40
f 37 40 41
f 37 41 42
usemtl glass
f 15 21 22
f 15 22 16
f 17 23 24
f 17 24 18
f 21 27 28
f 21 28 22
f 23 29 30
f 23 30 24
f 27 33 34
f 27 34 28
f 29 35 36
f 29 36 30
f 33 39 40
f 33 40 34
f 35 41 42
f 35 42 36
usemtl tire
f 99 102 103
f 99 103 100
f 102 105 106
f 102 106 103
f 105 108 109
f 105 109 106
f 108 111 112
f 108 112 109
f 111 114 115
f 111 115 112
f 114 117 118
f 114 118 115
f 117 120 121
f 117 121 118
f 120 99 100
f 120 100 121
f 99 102 104
f 99 104 101
f 102 105 107
f 102 107 104
f 105 108 110
f 105 110 107
f 108 111 113
f 108 113 110
f 111 114 116
f 111 116 113
f 114 117 119
f 114 119 116
f 117 120 122
f 117 122 119
f 120 99 101
f 120 101 122
f 124 127 128
f 124 128 125
f 127 130 131
f 127 131 128
f 130 133 134
f 130 134 131
f 133 136 137
f 133 137 134
f 136 139 140
f 136 140 137
f 139 142 143
f 139 143 140
f 142 145 146
f 142 146 143
f 145 124 125
f 145 125 146
f 125 128 129
f 125 129 126
f 128 131 132
f 128 132 129
f 131 134 135
f 131 135 132
f 134 137 138
f 134 138 135
f 137 140 141
f 137 141 138
f 140 143 144
f 140 144 141
f 143 146 147
f 143 147 144
f 146 125 126
f 146 126 147
f 149 152 153
f 149 153 150
f 152 155 156
f 152 156 153
f 155 158 159
f 155 159 156
f 158 161 162
f 158 162 159
f 161 164 165
f 161 165 162
f 164 167 168
f 164 168 165
f 167 170 171
f 167 171 168
f 170 149 150
f 170 150 171
f 149 152 154
f 149 154 151
f 152 155 157
f 152 157 154
f 155 158 160
f 155 160 157
f 158 161 163
f 158 163 160
f 161 164 166
f 161 166 163
f 164 167 169
f 164 169 166
f 167 170 172
f 167 172 169
f 170 149 151
f 170 151 172
f 174 177 178
f 174 178 175
f 177 180 181
f 177 181 178
f 180 183 184
f 180 184 181
f 183 186 187
f 183 187 184
f 186 189 190
f 186 190 187
f 189 192 193
f 189 193 190
f 192 195 196
f 192 196 193
f 195 174 175
f 195 175 196
f 175 178 179
f 175 179 176
f 178 181 182
f 178 182 179
f 181 184 185
f 181 185 182
f 184 187 188
f 184 188 185
f 187 190 191
f 187 191 188
f 190 193 194
f 190 194 191
f 193 196 197
f 193 197 194
f 196 175 176
f 196 176 197
usemtl rim
f 123 101 104
f 123 104 107
f 123 107 110
f 123 110 113
f 123 113 116
f 123 116 119
f 123 119 122
f 123 122 101
f 148 126 129
f 148 129 132
f 148 132 135
f 148 135 138
f 148 138 141
f 148 141 144
f 148 144 147
f 148 147 126
f 173 151 154
f 173 154 157
f 173 157 160
f 173 160 163
f 173 163 166
f 173 166 169
f 173 169 172
f 173 172 151
f 198 176 179
f 198 179 182
f 198 182 185
f 198 185 188
f 198 188 191
f 198 191 194
f 198 194 197
f 198 197 176
usemtl light
f 43 46 45
f 43 45 44
f 47 48 49
f 47 49 50
f 43 44 48
f 43 48 47
f 45 46 50
f 45 50 49
f 44 45 49
f 44 49 48
f 46 43 47
f 46 47 50
f 59 62 61
f 59 61 60
f 63 64 65
f 63 65 66
f 59 60 64
f 59 64 63
f 61 62 66
f 61 66 65
f 60 61 65
f 60 65 64
f 62 59 63
f 62 63 66
usemtl tail
f 51 54 53
f 51 53 52
f 55 56 57
f 55 57 58
f 51 52 56
f 51 56 55
f 53 54 58
f 53 58 57
f 52 53 57
f 52 57 56
f 54 51 55
f 54 55 58
f 67 70 69
f 67 69 68
f 71 72 73
f 71 73 74
f 67 68 72
f 67 72 71
f 69 70 74
f 69 74 73
f 68 69 73
f 68 73 72
f 70 67 71
f 70 71 74
usemtl trim
f 1 7 8
f 1 8 2
f 7 13 14
f 7 14 8
f 13 19 20
f 13 20 14
f 19 25 26
f 19 26 20
f 25 31 32
f 25 32 26
f 31 37 38
f 31 38 32
f 75 78 77
f 75 77 76
f 79 80 81
f 79 81 82
f 75 76 80
f 75 80 79
f 77 78 82
f 77 82 81
f 76 77 81
f 76 81 80
f 78 75 79
f 78 79 82
f 83 86 85
f 83 85 84
f 87 88 89
f 87 89 90
f 83 84 88
f 83 88 87
f 85 86 90
f 85 90 89
f 84 85 89
f 84 89 88
f 86 83 87
f 86 87 90
f 91 94 93
f 91 93 92
f 95 96 97
f 95 97 98
f 91 92 96
f 91 96 95
f 93 94 98
f 93 98 97
f 92 93 97
f 92 97 96
f 94 91 95
f 94 95 98
